<?xml version="1.0" standalone="no"?>
<!DOCTYPE svg PUBLIC "-//W3C//DTD SVG 20010904//EN"
 "http://www.w3.org/TR/2001/REC-SVG-20010904/DTD/svg10.dtd">
<svg version="1.0" xmlns="http://www.w3.org/2000/svg"
 width="630.000000pt" height="630.000000pt" viewBox="0 0 630.000000 630.000000"
 preserveAspectRatio="xMidYMid meet">
<metadata>
Created by potrace 1.14, written by Peter Selinger 2001-2017
</metadata>
<g transform="translate(0.000000,630.000000) scale(0.100000,-0.100000)"
fill="#000000" stroke="none">
<path d="M0 4740 c0 -858 2 -1560 6 -1560 6 0 33 62 31 71 -1 4 5 15 14 25 9
11 20 29 24 42 3 12 11 20 16 16 5 -3 9 -2 8 3 -3 17 1 32 14 45 31 33 108
163 102 171 -3 4 -2 5 1 2 6 -4 114 159 114 171 0 8 70 116 84 130 7 7 28 36
47 66 18 29 36 55 40 58 4 3 33 41 66 85 33 44 128 150 211 236 130 134 210
227 290 338 9 13 36 48 60 79 23 30 42 61 42 68 0 6 7 14 15 18 8 3 14 9 13
13 -2 5 7 19 19 32 40 43 36 53 -58 130 -122 100 -173 154 -223 236 -69 111
-81 158 -81 315 1 121 3 143 28 209 53 146 88 194 273 379 96 96 174 176 174
178 0 2 -299 4 -665 4 l-665 0 0 -1560z m411 -46 c17 -21 0 -49 -32 -49 -27 0
-37 28 -19 50 16 19 34 19 51 -1z"/>
<path d="M1390 6240 c-118 -96 -278 -259 -327 -333 -133 -202 -163 -427 -81
-593 62 -127 139 -213 258 -290 25 -16 52 -35 60 -43 8 -8 35 -23 60 -34 78
-34 77 -33 3 -106 -61 -59 -101 -106 -213 -246 -18 -22 24 17 92 87 67 70 145
143 173 163 48 36 52 37 110 31 33 -3 73 -10 89 -14 27 -7 26 -9 -46 -44 -247
-123 -594 -420 -874 -750 -110 -130 -157 -194 -309 -425 -153 -233 -175 -268
-175 -282 0 -6 -3 -11 -7 -11 -5 0 -21 -26 -38 -58 -16 -31 -32 -59 -36 -62
-7 -6 -15 -20 -82 -148 -32 -63 -47 -104 -47 -129 0 -34 8 -23 81 117 96 184
162 294 322 535 241 363 325 470 528 675 306 308 597 524 778 577 l56 16 -60
13 c-33 7 -79 21 -103 32 l-42 19 112 90 c187 150 348 245 579 341 167 69 419
134 637 163 l94 12 53 -56 c29 -31 77 -68 107 -83 29 -14 64 -34 78 -44 49
-33 105 -63 90 -48 -8 8 -50 43 -92 77 -68 54 -129 118 -152 159 -6 10 6 11
56 6 75 -7 322 11 346 26 16 10 -191 7 -358 -5 -30 -2 -60 -1 -66 3 -6 4 -42
71 -81 148 -95 190 -168 313 -247 410 -74 92 -164 167 -196 162 -17 -2 -10
-11 39 -49 69 -52 168 -160 217 -235 33 -51 204 -369 204 -379 0 -3 -29 15
-64 39 -148 101 -439 250 -601 306 -219 76 -451 106 -591 75 -194 -42 -391
-182 -466 -330 -21 -41 -55 -151 -63 -201 -13 -83 -8 -218 9 -279 16 -55 61
-147 104 -212 32 -50 -97 48 -179 135 -208 221 -219 455 -34 738 74 114 214
253 335 332 82 54 90 62 64 62 -21 0 -51 -17 -104 -60z m777 -248 c228 -64
664 -281 776 -387 15 -14 27 -29 27 -34 0 -4 -26 -8 -57 -9 -96 -4 -296 -36
-373 -62 -14 -4 -45 -14 -70 -21 -25 -7 -50 -16 -56 -21 -6 -4 -14 -5 -18 -1
-4 4 -11 2 -15 -5 -4 -7 -18 -14 -30 -17 -13 -2 -33 -11 -45 -18 -11 -8 -43
-22 -71 -32 -27 -11 -93 -40 -145 -65 -52 -26 -111 -53 -130 -60 -19 -8 -46
-22 -60 -31 -14 -9 -56 -35 -95 -58 -38 -22 -91 -57 -117 -78 -26 -21 -70 -56
-97 -78 -28 -22 -50 -45 -51 -51 -2 -53 -101 -24 -175 50 -144 145 -191 379
-120 591 48 146 110 232 220 310 131 94 216 116 430 111 143 -3 172 -6 272
-34z"/>
<path d="M1740 5951 c-100 -17 -204 -74 -286 -158 -45 -45 -96 -124 -100 -152
-1 -9 -7 -29 -12 -46 -26 -78 -32 -106 -32 -161 0 -33 7 -83 15 -110 8 -27 15
-53 16 -59 2 -5 9 -16 16 -23 7 -7 16 -25 20 -40 3 -15 9 -29 13 -32 3 -3 26
-33 49 -67 24 -35 47 -63 51 -63 3 0 17 12 31 26 75 83 200 179 308 237 195
107 272 144 365 176 157 55 431 131 477 132 24 0 53 4 63 8 17 7 16 9 -12 30
-18 12 -67 38 -109 58 -43 19 -143 67 -223 105 -151 72 -253 109 -355 127 -81
15 -240 21 -295 12z"/>
<path d="M2900 6263 c-28 -98 -41 -218 -32 -283 8 -56 10 -59 11 -23 3 102 30
235 66 326 5 13 2 17 -13 17 -16 0 -24 -10 -32 -37z"/>
<path d="M3091 6255 c-76 -106 -119 -244 -106 -340 3 -27 19 -81 35 -120 16
-38 31 -80 35 -92 l6 -22 337 4 c203 3 370 0 420 -6 62 -8 109 -8 180 1 185
23 555 -23 807 -101 163 -50 239 -76 290 -99 23 -10 54 -22 70 -26 46 -11 259
-120 370 -190 104 -64 158 -96 235 -138 78 -42 389 -277 478 -359 l52 -50 0
792 0 791 -35 0 c-25 0 -35 -4 -35 -15 0 -29 -39 -93 -75 -122 -45 -37 -95
-53 -137 -44 -37 9 -78 32 -78 43 0 5 -11 18 -25 30 -25 21 -35 45 -14 33 7
-5 9 6 7 31 l-3 39 -1391 3 -1391 2 -32 -45z m1272 -347 c8 -12 7 -24 -3 -42
-16 -30 -27 -32 -58 -10 l-22 15 22 30 c24 32 44 34 61 7z m1895 -750 c29 -29
7 -78 -35 -78 -30 0 -46 31 -33 64 10 28 47 35 68 14z"/>
<path d="M3570 5579 c58 -23 125 -31 209 -24 85 8 85 8 51 21 -43 16 -300 19
-260 3z"/>
<path d="M3940 5580 c-44 -5 -31 -7 63 -8 282 -4 652 -76 928 -180 150 -57
176 -68 359 -158 333 -164 637 -369 918 -622 66 -59 92 -78 92 -65 0 18 -87
110 -141 149 -15 10 -71 56 -125 102 -208 175 -484 368 -512 357 -7 -2 -11 -1
-8 4 3 5 -24 24 -62 42 -37 19 -69 37 -72 40 -6 8 -235 118 -252 121 -7 2 -15
5 -18 8 -11 11 -78 38 -135 55 -33 9 -66 21 -72 27 -7 6 -25 7 -40 4 -21 -5
-24 -4 -13 4 12 8 10 10 -12 10 -32 0 -205 38 -233 50 -27 13 -84 25 -238 49
-129 21 -307 26 -427 11z"/>
<path d="M3895 5379 c-44 -5 -100 -15 -125 -23 -25 -7 -67 -19 -93 -26 -82
-22 -44 -22 49 0 136 32 243 41 364 29 268 -27 667 -193 934 -388 102 -74 270
-228 340 -310 261 -310 529 -841 719 -1426 66 -204 80 -258 164 -655 l48 -225
3 75 c3 74 -5 136 -33 255 -7 33 -19 87 -25 120 -7 33 -18 85 -26 115 -7 30
-20 82 -28 115 -8 33 -17 69 -22 79 -7 17 -4 19 32 13 21 -3 54 -9 72 -12 29
-7 32 -5 32 17 0 22 -7 26 -76 43 -41 10 -82 23 -90 29 -8 6 -30 55 -48 109
-19 54 -37 101 -40 104 -3 4 -6 18 -6 33 0 15 -3 29 -6 32 -3 4 -26 66 -50
140 -53 157 -207 475 -323 667 -44 73 -81 135 -81 137 0 7 55 -20 108 -53 29
-19 57 -31 62 -28 5 3 12 0 16 -6 5 -8 3 -9 -7 -4 -8 5 -5 -1 5 -13 21 -25 36
-31 16 -7 -25 31 7 13 68 -36 35 -28 61 -54 58 -57 -4 -3 -16 3 -29 14 -13 10
-5 3 16 -18 22 -20 45 -34 51 -32 14 5 50 -22 43 -33 -3 -4 8 -24 24 -43 21
-24 29 -29 29 -17 0 9 -5 17 -11 17 -5 0 -7 4 -4 10 3 5 19 -5 35 -23 30 -34
32 -49 3 -26 -24 20 -14 4 75 -119 71 -98 88 -140 39 -95 -24 23 -182 123
-193 123 -4 0 -39 18 -78 40 l-71 40 43 -38 c23 -21 86 -64 140 -96 154 -93
174 -107 231 -160 l53 -51 -5 61 c-4 34 -12 74 -18 90 -16 39 -16 40 -29 113
-6 36 -14 69 -17 74 -4 6 9 8 33 4 35 -6 37 -5 20 8 -10 8 -23 12 -27 9 -14
-8 -49 16 -49 34 0 9 -7 30 -15 46 -8 15 -15 34 -15 41 0 18 -49 114 -50 97 0
-22 57 -240 89 -342 33 -103 36 -120 21 -120 -5 0 -10 5 -10 10 0 10 -14 40
-54 118 -10 17 -21 32 -26 32 -4 0 -11 11 -14 25 -4 14 -13 25 -22 25 -8 0
-13 4 -9 9 8 14 -95 121 -198 204 -99 80 -195 144 -293 196 -50 27 -79 53
-150 139 -221 265 -447 457 -676 573 -106 54 -321 140 -336 134 -7 -2 -10 0
-7 5 3 6 -3 10 -14 10 -11 0 -73 13 -138 30 -107 27 -264 52 -303 49 -8 -1
-51 -6 -95 -10z m2039 -1175 c5 -14 4 -15 -9 -4 -17 14 -19 20 -6 20 5 0 12
-7 15 -16z m86 -64 c8 -5 11 -10 5 -10 -5 0 -17 5 -25 10 -8 5 -10 10 -5 10 6
0 17 -5 25 -10z"/>
<path d="M3800 5098 c116 -52 175 -86 234 -133 37 -30 72 -52 76 -50 16 10
196 -183 287 -306 130 -177 217 -317 302 -487 93 -186 253 -684 360 -1122 117
-481 172 -1010 142 -1375 -10 -133 -50 -397 -72 -478 l-10 -37 -65 86 c-226
295 -271 364 -419 643 -93 175 -290 610 -280 619 6 7 178 -54 260 -92 74 -35
224 -133 340 -224 48 -38 61 -45 40 -23 -51 56 -217 185 -308 240 -92 55 -158
83 -267 110 -61 16 -66 19 -87 61 -23 49 -99 270 -133 390 -53 186 -61 230
-105 635 -43 385 -64 548 -73 557 -4 4 0 -76 10 -178 32 -356 51 -750 44 -925
-6 -158 -30 -414 -42 -451 -5 -16 -19 -18 -100 -18 l-95 0 5 43 c23 186 28
411 17 712 -13 362 -20 465 -31 465 -5 0 -9 -66 -9 -147 -4 -449 -99 -914
-271 -1324 -44 -105 -84 -183 -190 -374 -73 -130 -165 -263 -225 -325 -35 -36
-65 -74 -67 -85 -2 -11 -11 -20 -20 -20 -9 0 -20 -4 -25 -9 -5 -5 -2 -6 6 -1
9 5 12 3 9 -6 -3 -8 -12 -13 -21 -13 -8 1 -14 -4 -12 -10 2 -6 -13 -24 -33
-41 -20 -16 -33 -24 -28 -17 10 17 -5 15 -33 -5 -23 -16 -23 -17 -5 -24 17 -7
17 -8 -3 -8 -16 -1 -21 -6 -17 -16 4 -8 1 -15 -5 -15 -6 0 -11 5 -11 11 0 5
-5 7 -11 3 -8 -5 -8 -9 1 -14 9 -5 9 -9 1 -14 -6 -4 -15 -4 -21 -1 -11 7 -64
-25 -55 -33 3 -3 14 3 25 13 11 10 23 16 26 13 5 -6 -63 -52 -81 -54 -5 -1
-16 -2 -23 -3 -7 0 -11 -5 -8 -10 3 -5 -2 -8 -12 -7 -9 0 -16 -5 -14 -12 1 -8
-2 -11 -8 -7 -5 3 -45 -9 -87 -28 -75 -33 -96 -42 -118 -47 -5 -1 -20 -6 -32
-11 -39 -15 -25 -1 48 47 38 26 111 85 162 132 51 46 116 102 145 124 46 35
51 41 38 54 -23 22 -104 176 -157 294 -50 114 -88 237 -120 395 -43 214 -45
734 -4 1365 l4 75 -14 -90 c-8 -49 -19 -137 -25 -195 -20 -209 -63 -929 -63
-1080 0 -132 20 -506 38 -690 6 -64 12 -73 -77 122 -88 193 -129 373 -158 697
-5 63 -8 117 -5 119 3 3 24 -2 47 -11 59 -24 58 -14 -3 20 l-51 28 5 255 c8
303 19 463 53 705 92 657 206 1040 388 1304 52 76 147 179 201 218 l30 22 -32
-9 c-118 -31 -292 -268 -391 -530 -111 -293 -143 -419 -197 -775 -24 -157 -48
-307 -60 -380 -15 -84 -42 -164 -114 -339 -43 -105 -91 -229 -106 -276 -40
-122 -37 -120 -138 -125 -48 -2 -116 -11 -152 -20 -37 -8 -68 -15 -70 -15 -2
0 2 21 10 48 7 26 32 119 55 207 57 217 133 481 170 589 16 50 30 92 30 95 -1
11 -30 -46 -71 -139 -39 -90 -223 -480 -292 -620 -18 -35 -67 -122 -109 -192
-42 -71 -71 -125 -65 -122 7 3 3 -3 -9 -13 -50 -44 -178 -213 -161 -213 2 0
32 34 67 76 34 41 64 73 67 70 5 -5 -84 -142 -123 -189 -13 -16 -24 -32 -24
-37 0 -5 -10 -30 -22 -57 -12 -26 -30 -70 -40 -98 -15 -41 -17 -44 -13 -15 3
19 10 64 15 100 23 158 44 236 141 539 32 101 59 192 59 202 0 10 4 20 9 24 5
3 13 20 16 38 22 99 133 417 192 547 14 30 26 65 27 77 0 11 4 19 7 18 3 -2
14 19 24 48 10 29 22 57 27 64 6 7 7 17 3 24 -6 8 -10 7 -16 -2 -6 -10 -9 -11
-9 -1 0 6 -4 12 -10 12 -5 0 -10 -5 -10 -12 0 -6 -15 -44 -34 -83 -42 -89
-139 -355 -194 -530 -22 -71 -77 -245 -121 -385 -103 -328 -144 -494 -181
-740 -6 -41 -16 -91 -20 -110 -21 -82 -43 -299 -49 -484 -4 -132 -10 -201 -17
-203 -16 -5 -30 36 -49 142 -8 50 -20 110 -26 134 -67 290 -45 911 46 1326 19
86 45 245 44 265 -1 22 -46 -155 -75 -299 -53 -259 -76 -462 -81 -716 -7 -326
15 -532 84 -785 28 -103 39 -124 59 -116 17 7 36 -27 28 -51 -4 -13 -3 -14 3
-5 7 9 12 6 21 -13 7 -14 12 -34 12 -44 0 -34 89 -198 136 -250 25 -28 43 -51
39 -51 -30 0 -252 149 -349 234 -134 118 -207 236 -277 446 -41 126 -47 126
-23 -1 19 -101 60 -209 148 -389 55 -112 74 -140 48 -71 -4 11 -1 11 18 1 16
-9 19 -14 10 -20 -9 -5 -9 -9 -1 -14 6 -4 15 -5 20 -2 23 15 79 -99 105 -214
16 -71 21 -271 7 -253 -14 16 -44 133 -45 180 -1 12 -3 19 -5 17 -4 -4 -41
108 -63 193 -6 24 -15 43 -20 43 -5 0 -7 -8 -4 -17 3 -10 19 -72 36 -137 17
-66 47 -171 67 -235 l36 -116 -12 -120 c-15 -159 -15 -155 13 -155 22 0 24 5
34 103 6 56 14 149 18 207 6 116 -11 389 -26 404 -12 12 -13 46 -2 46 4 0 42
-23 85 -50 43 -28 91 -57 106 -64 36 -19 152 -58 157 -53 3 2 -14 16 -36 31
-63 41 -144 169 -180 281 -7 22 -21 56 -30 75 -10 19 -21 45 -25 58 -6 21 -4
22 19 16 29 -7 102 4 92 14 -4 3 -28 9 -54 13 l-47 6 47 2 c26 0 65 -6 86 -14
38 -16 39 -16 108 25 38 22 105 55 149 72 75 30 88 32 210 32 155 1 234 -18
378 -90 86 -43 188 -109 195 -126 2 -5 8 -8 13 -8 8 0 -7 43 -32 92 -16 32 -9
42 14 20 22 -21 23 -21 35 -2 18 29 16 34 -39 89 -71 71 -162 134 -261 180
-82 39 -302 111 -338 111 -10 0 -20 6 -22 12 -11 31 222 635 360 938 16 36 35
82 41 102 14 43 13 43 131 6 78 -25 81 -27 86 -69 2 -19 8 -81 14 -139 20
-204 66 -407 122 -550 32 -81 190 -402 195 -396 2 2 -3 32 -12 67 -24 103 -38
329 -31 508 3 90 7 166 9 167 2 2 14 -29 26 -69 31 -95 66 -176 173 -395 56
-114 86 -187 81 -195 -4 -8 -68 -69 -141 -136 -136 -124 -225 -191 -289 -217
-53 -23 -34 -27 43 -9 202 46 324 101 482 215 l43 31 38 -34 c60 -54 185 -135
277 -179 47 -23 87 -39 89 -36 2 2 -26 21 -63 43 -37 21 -80 49 -95 62 -16 13
-33 21 -38 17 -14 -8 -81 37 -75 51 2 7 -21 34 -55 61 l-60 48 73 75 c40 42
74 77 75 80 2 2 5 -5 9 -15 66 -203 228 -418 376 -498 59 -32 59 -32 -31 45
-124 104 -201 200 -266 330 -64 126 -65 143 -14 204 144 172 340 520 434 768
25 67 64 167 87 222 57 141 88 231 103 300 13 56 13 58 14 20 1 -44 -15 -253
-25 -327 -6 -46 -7 -48 -37 -48 l-32 -1 33 -14 c36 -16 43 -35 12 -35 -26 0
-26 -16 1 -23 17 -5 20 -11 15 -34 -3 -15 -8 -71 -11 -123 -29 -445 -130 -869
-242 -1018 -41 -54 -20 -47 23 8 21 28 47 60 58 73 10 12 25 37 32 55 8 18 34
58 58 90 111 148 166 252 245 469 50 139 73 221 105 392 14 74 27 136 29 137
2 2 52 -6 111 -18 88 -17 110 -25 117 -42 5 -12 30 -77 57 -146 148 -379 482
-943 683 -1155 l69 -72 -25 -119 c-29 -141 -43 -191 -54 -199 -5 -2 -40 30
-77 73 -38 42 -79 87 -91 99 -28 27 -29 36 -3 28 24 -7 63 3 55 15 -3 4 -43
27 -89 49 -46 23 -108 60 -137 82 -30 22 -67 48 -83 56 l-30 15 24 13 c33 18
15 24 -102 35 -57 6 -141 15 -188 21 -114 15 -304 6 -405 -20 -123 -32 -218
-69 -255 -99 l-33 -28 44 4 44 4 -26 -28 c-40 -45 -81 -105 -76 -110 2 -3 35
2 73 11 253 56 263 57 429 52 181 -6 253 -22 391 -86 98 -46 176 -98 280 -187
42 -36 90 -72 107 -80 26 -14 31 -14 48 2 10 9 19 23 19 31 0 7 5 13 11 13 5
0 8 3 6 7 -3 5 6 9 20 10 24 1 25 -1 20 -35 -4 -19 -10 -38 -15 -41 -5 -3 -20
-26 -32 -51 -12 -25 -48 -79 -79 -120 -31 -41 -64 -87 -73 -101 -27 -42 -129
-149 -172 -181 -21 -15 -36 -28 -33 -28 19 0 153 61 248 112 98 53 129 66 129
53 0 -22 -172 -279 -214 -320 -19 -18 -19 -20 -3 -23 10 -2 24 2 32 8 20 16
113 158 169 257 26 45 70 105 98 135 80 84 111 126 172 231 58 102 69 132 38
104 -24 -22 -212 -12 -212 11 0 8 16 68 35 132 92 313 127 510 144 821 32 589
-124 1419 -407 2159 -115 301 -246 537 -448 805 -175 235 -411 413 -579 438
-35 6 -37 5 -15 -5z m-1573 -2320 c-5 -199 -7 -213 -24 -210 -10 1 -51 8 -91
14 -71 12 -73 14 -67 38 5 26 177 370 184 370 2 0 1 -96 -2 -212z m1908 102
c8 -16 30 -71 49 -122 18 -51 47 -123 64 -160 16 -37 28 -68 26 -71 -2 -2 -46
3 -97 12 -88 15 -92 17 -91 41 3 56 28 330 31 330 1 0 9 -13 18 -30z m-2455
-143 c-40 -169 -40 -168 -101 -201 -30 -16 -66 -38 -81 -48 -16 -11 -28 -16
-28 -11 0 20 230 397 237 389 2 -2 -10 -59 -27 -129z m267 -175 l22 -7 -33
-77 c-68 -156 -192 -485 -291 -776 -58 -167 -74 -207 -79 -185 -14 73 -17 213
-7 367 14 213 35 356 75 516 l31 125 40 13 c80 27 193 38 242 24z m2083 -59
c0 -36 -43 -242 -75 -363 -51 -189 -91 -305 -144 -415 -41 -87 -136 -245 -146
-245 -2 0 7 32 21 70 41 120 108 511 120 702 1 27 7 72 13 100 6 29 13 67 15
83 11 78 14 80 139 83 48 2 57 -1 57 -15z m-2410 2 c0 -3 -11 -54 -25 -113
-14 -59 -30 -126 -35 -149 -23 -100 -42 -390 -37 -563 3 -96 9 -184 12 -196 6
-19 2 -22 -50 -28 -51 -6 -190 -48 -204 -62 -3 -3 1 -9 8 -14 11 -6 5 -16 -25
-41 -21 -18 -77 -72 -124 -121 -47 -48 -88 -88 -90 -88 -8 0 -1 208 11 310 27
240 73 387 206 670 55 116 177 288 239 336 56 45 114 74 114 59z m-365 -376
c-9 -17 -19 -28 -22 -25 -6 6 23 56 32 56 3 0 -2 -14 -10 -31z m647 -807 c15
-9 28 -19 28 -23 0 -9 -140 17 -152 29 -18 18 92 13 124 -6z m1162 -43 c5 -4
1 -6 -8 -5 -10 1 -22 9 -27 17 -5 8 -9 11 -9 7 0 -11 -40 24 -40 35 0 7 48
-24 84 -54z m132 -100 c4 -8 1 -8 -14 0 -12 6 -24 16 -28 22 -4 8 -1 8 14 0
12 -6 24 -16 28 -22z m2064 -475 c0 -4 -21 -43 -47 -87 -72 -122 -157 -204
-278 -266 -55 -28 -127 -67 -160 -86 -33 -19 -62 -35 -65 -35 -3 0 29 35 70
78 48 48 114 134 175 227 54 83 105 156 114 163 15 12 191 18 191 6z"/>
<path d="M1990 5039 c-19 -4 -53 -11 -75 -14 -22 -4 -43 -11 -46 -17 -4 -6
-14 -8 -24 -5 -9 4 -14 3 -10 -3 3 -6 -4 -10 -17 -10 -12 0 -54 -12 -93 -27
-110 -43 -39 -42 87 1 57 19 136 44 177 55 41 11 76 23 79 26 8 7 -37 4 -78
-6z"/>
<path d="M1987 4341 c-13 -23 -15 -31 -5 -37 7 -4 10 -3 5 1 -4 5 0 16 9 26 9
10 14 23 12 29 -2 6 -11 -3 -21 -19z"/>
<path d="M5815 4280 c10 -11 20 -20 23 -20 3 0 -3 9 -13 20 -10 11 -20 20 -23
20 -3 0 3 -9 13 -20z"/>
<path d="M1947 4251 c-9 -16 -17 -33 -17 -38 0 -4 9 7 21 26 11 18 18 35 17
37 -2 2 -12 -10 -21 -25z"/>
<path d="M1915 4189 c-4 -6 -5 -12 -2 -15 2 -3 7 2 10 11 7 17 1 20 -8 4z"/>
<path d="M1875 4109 c-4 -6 -5 -12 -2 -15 2 -3 7 2 10 11 7 17 1 20 -8 4z"/>
<path d="M1836 4025 c-9 -26 -7 -32 5 -12 6 10 9 21 6 23 -2 3 -7 -2 -11 -11z"/>
<path d="M1815 3979 c-4 -6 -5 -12 -2 -15 2 -3 7 2 10 11 7 17 1 20 -8 4z"/>
<path d="M2582 3710 c0 -14 2 -19 5 -12 2 6 2 18 0 25 -3 6 -5 1 -5 -13z"/>
<path d="M1675 3659 c-4 -6 -5 -12 -2 -15 2 -3 7 2 10 11 7 17 1 20 -8 4z"/>
<path d="M2572 3635 c0 -16 2 -22 5 -12 2 9 2 23 0 30 -3 6 -5 -1 -5 -18z"/>
<path d="M488 3313 c-25 -29 -132 -211 -178 -303 -23 -47 -59 -114 -80 -150
-131 -227 -230 -424 -230 -458 0 -34 3 -31 63 68 35 58 76 126 91 153 15 26
29 47 32 47 10 0 -47 -428 -61 -450 -2 -3 -11 -73 -20 -155 -13 -113 -16 -194
-12 -330 6 -196 38 -420 62 -445 13 -12 15 -11 15 17 0 16 -9 97 -20 178 -38
280 -22 616 46 950 35 172 100 404 141 504 56 138 124 292 150 344 25 50 25
58 1 30z"/>
<path d="M3547 3206 c-9 -105 -48 -352 -77 -483 -11 -50 -17 -100 -14 -110 5
-15 4 -16 -5 -3 -8 12 -11 8 -11 -21 0 -19 -4 -39 -9 -45 -6 -5 -11 -30 -12
-56 -2 -27 -7 -48 -11 -48 -5 0 -6 -4 -3 -10 5 -9 -81 -226 -142 -360 -14 -30
-34 -77 -43 -104 -10 -27 -25 -53 -34 -58 -9 -5 -16 -14 -16 -21 0 -7 -21 -39
-46 -72 -25 -33 -68 -93 -94 -133 l-48 -74 -32 46 c-44 65 -122 226 -160 332
-55 151 -59 159 -69 157 -6 -2 -8 4 -5 12 4 8 1 15 -5 15 -6 0 -11 -4 -11 -9
0 -13 50 -153 59 -166 4 -5 16 -32 26 -60 24 -67 116 -249 154 -305 l31 -45
-48 -50 c-45 -47 -38 -44 37 21 48 42 144 163 224 284 63 95 167 295 180 345
3 11 22 72 42 135 75 234 119 431 130 580 3 47 10 135 16 195 6 61 9 130 8
155 -3 35 -6 25 -12 -44z"/>
<path d="M1021 2994 c0 -11 3 -14 6 -6 3 7 2 16 -1 19 -3 4 -6 -2 -5 -13z"/>
<path d="M21 2304 c-19 -24 -21 -39 -20 -138 l1 -111 14 80 c7 44 17 105 22
135 6 30 9 56 7 58 -1 2 -12 -9 -24 -24z"/>
<path d="M2692 2200 c0 -14 2 -19 5 -12 2 6 2 18 0 25 -3 6 -5 1 -5 -13z"/>
<path d="M6188 1910 c13 -178 6 -576 -11 -698 -49 -331 -191 -741 -331 -957
-29 -44 -82 -117 -119 -163 -37 -45 -67 -85 -67 -87 0 -3 10 -5 23 -5 34 0
137 127 223 275 l35 60 -6 -95 c-6 -83 -12 -131 -31 -217 -4 -21 -1 -23 42
-23 l46 0 -5 147 c-3 82 -9 166 -12 188 -6 35 0 56 45 155 58 129 78 180 121
325 30 99 89 420 89 481 0 19 6 34 15 38 18 7 31 -39 44 -155 8 -75 9 -67 7
81 -2 144 -5 177 -29 265 -15 55 -37 172 -48 260 -25 195 -41 259 -31 125z"/>
<path d="M2 1306 c-1 -165 0 -297 2 -295 10 11 56 192 56 222 0 19 -11 93 -25
163 -13 71 -26 147 -28 169 -2 22 -4 -95 -5 -259z"/>
<path d="M2077 1509 c7 -7 15 -10 18 -7 3 3 -2 9 -12 12 -14 6 -15 5 -6 -5z"/>
<path d="M2110 1496 c0 -3 14 -12 30 -21 17 -9 30 -13 30 -11 0 3 -13 12 -30
21 -16 9 -30 13 -30 11z"/>
<path d="M2110 1458 c3 -2 30 -26 60 -53 48 -43 50 -44 17 -9 -20 22 -36 42
-35 45 2 2 1 3 -1 2 -2 -1 -13 3 -25 9 -11 6 -19 9 -16 6z"/>
<path d="M4050 1453 c-59 -7 -200 -54 -200 -66 0 -4 -4 -6 -9 -3 -10 6 -47
-31 -39 -39 7 -8 78 26 73 35 -2 3 4 6 13 7 9 1 44 9 77 17 65 18 249 24 355
12 l65 -7 -40 22 c-33 18 -57 22 -155 23 -63 1 -126 0 -140 -1z m-23 -19 c-3
-3 -12 -4 -19 -1 -8 3 -5 6 6 6 11 1 17 -2 13 -5z"/>
<path d="M155 1226 c3 -12 12 -57 21 -101 16 -83 32 -141 58 -210 22 -59 19
-26 -8 89 -13 55 -30 133 -37 172 -8 44 -18 71 -26 71 -8 0 -11 -8 -8 -21z"/>
<path d="M6021 1180 c-37 -134 -96 -321 -122 -389 -106 -265 -308 -554 -502
-717 l-88 -74 37 0 c29 0 52 12 113 57 140 106 231 216 318 390 20 40 39 70
42 67 9 -9 -138 -289 -210 -400 -38 -58 -69 -107 -69 -110 0 -2 11 -4 23 -4
44 0 205 254 258 405 12 33 26 68 31 79 7 13 7 16 -1 11 -6 -3 -3 13 8 37 10
24 27 68 37 98 9 30 20 57 24 60 6 4 31 92 46 160 3 14 10 41 14 60 44 181 78
404 41 270z"/>
<path d="M71 1080 c0 -33 1 -34 10 -11 6 16 6 28 -1 35 -7 7 -10 -1 -9 -24z"/>
<path d="M38 947 c-41 -127 -41 -125 -24 -97 18 33 59 157 54 170 -1 5 -15
-28 -30 -73z"/>
<path d="M561 793 c-2 -63 91 -273 162 -368 39 -52 154 -171 191 -198 40 -29
27 -9 -69 103 -143 168 -187 238 -255 411 -16 41 -29 64 -29 52z"/>
<path d="M597 523 c-2 -5 -12 -33 -22 -63 -39 -122 -89 -229 -174 -375 -23
-38 -41 -73 -41 -77 0 -5 13 -8 29 -8 27 0 33 7 80 104 28 58 51 112 51 121 0
9 4 14 8 11 5 -3 1 -56 -8 -118 -10 -62 -16 -115 -14 -117 2 -2 10 -1 18 2 9
4 16 28 21 69 4 35 22 147 41 250 19 102 34 191 34 197 0 12 -17 15 -23 4z"/>
<path d="M200 450 c-36 -36 -95 -88 -132 -116 -39 -28 -68 -56 -68 -66 0 -10
3 -18 7 -18 11 0 75 52 136 109 31 30 59 52 62 49 3 -3 -4 -27 -16 -54 -28
-66 -129 -336 -129 -346 0 -4 6 -8 14 -8 15 0 43 66 66 150 11 42 80 226 117
312 26 61 11 58 -57 -12z"/>
<path d="M2635 215 c-136 -17 -245 -42 -283 -66 -29 -17 -62 -88 -62 -131 0
-33 37 -21 50 17 15 45 69 91 122 105 91 24 104 26 122 22 15 -3 16 -6 5 -14
-15 -11 -11 -9 66 20 64 24 402 29 539 7 187 -29 312 -68 345 -109 8 -9 14
-27 14 -41 0 -19 5 -25 23 -25 23 0 23 0 7 45 -8 26 -27 53 -43 65 -43 31
-195 77 -310 95 -146 22 -456 28 -595 10z"/>
<path d="M0 144 c0 -8 5 -12 10 -9 6 3 10 10 10 16 0 5 -4 9 -10 9 -5 0 -10
-7 -10 -16z"/>
<path d="M2544 124 c-18 -14 -18 -15 4 -4 12 6 22 13 22 15 0 8 -5 6 -26 -11z"/>
</g>
</svg>
